<svg xmlns="http://www.w3.org/2000/svg" xmlns:xlink="http://www.w3.org/1999/xlink" width="500" zoomAndPan="magnify" viewBox="0 0 375 374.999991" height="500" preserveAspectRatio="xMidYMid meet" version="1.0"><defs><clipPath id="36d302f817"><path d="M 96.390625 151 L 265.890625 151 L 265.890625 252 L 96.390625 252 Z M 96.390625 151 " clip-rule="nonzero"/></clipPath></defs><path fill="#0cc0df" d="M 317.695312 139.519531 C 302.230469 59.96875 205.289062 58.636719 181.386719 133.003906 C 157.484375 58.640625 60.542969 59.96875 45.078125 139.519531 C 31.046875 211.691406 181.386719 325.558594 181.386719 325.558594 C 181.386719 325.558594 331.726562 211.691406 317.695312 139.519531 Z M 317.695312 139.519531 " fill-opacity="1" fill-rule="nonzero"/><g clip-path="url(#36d302f817)"><path fill="#737373" d="M 256.460938 229.390625 C 257.101562 243.285156 234.996094 240.644531 227.285156 239.492188 C 220.660156 238.503906 213.664062 236.957031 207.128906 235.269531 C 200.992188 233.683594 194.914062 231.871094 188.886719 229.910156 C 188.621094 229.824219 188.355469 229.738281 188.089844 229.648438 C 188.726562 229.363281 189.367188 229.089844 190.015625 228.820312 C 198.578125 225.242188 206.757812 222.675781 215.695312 220.304688 C 227.660156 217.132812 255.523438 209.050781 256.460938 229.390625 Z M 173.472656 247.617188 C 173.46875 247.617188 173.464844 247.617188 173.464844 247.617188 C 173.363281 247.597656 173.316406 247.585938 173.472656 247.617188 Z M 173.765625 247.523438 C 173.8125 247.507812 173.800781 247.507812 173.765625 247.523438 Z M 173.53125 247.628906 C 173.535156 247.628906 173.535156 247.628906 173.539062 247.628906 C 173.546875 247.628906 173.550781 247.632812 173.554688 247.632812 C 173.554688 247.632812 173.550781 247.632812 173.546875 247.632812 C 173.542969 247.632812 173.535156 247.632812 173.53125 247.628906 Z M 153.410156 231.667969 C 144.25 235.542969 134.226562 238.824219 124.195312 238.96875 C 118.472656 239.054688 113.171875 237.441406 109.0625 233.15625 C 106.316406 230.289062 105.324219 227.457031 105.960938 223.628906 C 108.359375 209.292969 128.152344 212.46875 137.078125 215 C 147.199219 217.871094 157.027344 221.648438 166.894531 225.359375 C 162.453125 227.582031 157.980469 229.730469 153.410156 231.667969 Z M 191.191406 199.28125 C 183.195312 198.777344 175.039062 199.753906 167.277344 201.671875 C 164.773438 202.289062 162.285156 203.027344 159.851562 203.902344 C 159.863281 191.558594 155.519531 179.464844 147.886719 169.796875 C 147.957031 169.816406 148.027344 169.835938 148.097656 169.859375 C 150.628906 170.613281 152.28125 171.183594 154.738281 172.246094 C 157.597656 173.488281 160.304688 175.070312 162.753906 177 C 164.023438 178.003906 165.15625 179.164062 166.386719 180.199219 C 167.171875 180.859375 168.128906 182.277344 169.285156 182.1875 C 170.210938 182.117188 171.308594 180.804688 171.914062 180.164062 C 173.035156 178.980469 173.929688 177.429688 174.804688 176.0625 C 176.570312 173.320312 178.109375 170.441406 179.484375 167.484375 C 180.566406 165.15625 181.59375 162.804688 182.671875 160.472656 C 182.792969 161.164062 184.957031 165.035156 185.316406 165.761719 C 186.230469 167.609375 187.128906 169.460938 188.015625 171.320312 C 189.035156 173.460938 190.003906 175.628906 191.082031 177.734375 C 191.644531 178.835938 192.832031 180.910156 193.902344 181.574219 C 195.339844 182.460938 196.328125 180.726562 197.261719 179.960938 C 198.375 179.046875 199.625 178.167969 200.796875 177.304688 C 203.535156 175.289062 206.527344 173.636719 209.636719 172.265625 C 210.738281 171.78125 211.832031 171.335938 212.917969 170.917969 C 212.125 171.792969 211.390625 172.722656 210.730469 173.710938 C 208.839844 176.542969 207.714844 179.851562 207.238281 183.210938 C 206.253906 190.179688 208.058594 197.304688 210.015625 203.964844 C 204.273438 200.890625 197.65625 199.6875 191.191406 199.28125 Z M 264.722656 222.738281 C 263.320312 219.140625 260.011719 216.714844 256.496094 215.394531 C 251.835938 213.640625 246.746094 213.226562 241.800781 213.316406 C 236.179688 213.421875 230.601562 214.183594 225.078125 215.210938 C 215.65625 216.964844 206.410156 219.628906 197.335938 222.6875 C 192.597656 224.285156 187.859375 225.960938 183.304688 228.039062 C 183.296875 228.035156 183.292969 228.03125 183.285156 228.03125 C 183.113281 227.96875 182.9375 227.910156 182.765625 227.847656 C 182.722656 227.832031 182.679688 227.820312 182.636719 227.804688 C 182.253906 227.667969 181.871094 227.535156 181.488281 227.394531 C 180.847656 227.167969 180.207031 226.933594 179.566406 226.699219 C 178.125 226.167969 176.683594 225.632812 175.246094 225.09375 C 183.761719 220.726562 192.246094 216.277344 201.234375 212.976562 C 201.808594 212.765625 202.386719 212.5625 202.964844 212.363281 C 203.222656 212.273438 203.484375 212.1875 203.75 212.097656 C 203.765625 212.09375 204.359375 211.902344 204.464844 211.867188 C 205.71875 211.472656 206.988281 211.117188 208.265625 210.796875 C 209.453125 210.496094 210.648438 210.238281 211.855469 210.015625 C 211.867188 210.011719 211.875 210.011719 211.886719 210.007812 C 212.015625 209.988281 212.144531 209.964844 212.273438 209.945312 C 212.582031 209.894531 212.898438 209.847656 213.210938 209.804688 C 213.832031 209.714844 214.457031 209.644531 215.082031 209.582031 C 215.921875 209.496094 217.53125 209.148438 217.167969 208.003906 C 215.007812 201.113281 212.832031 193.976562 212.917969 186.683594 C 212.957031 183.398438 213.554688 180.136719 214.9375 177.144531 C 216.46875 173.832031 218.890625 171.074219 221.753906 168.847656 C 222.648438 168.148438 223.59375 167.511719 224.554688 166.910156 C 225.398438 166.382812 224.738281 165.613281 224.105469 165.328125 C 223.074219 164.863281 221.601562 164.742188 220.515625 165.089844 C 212.039062 167.785156 203.320312 170.460938 196.070312 175.660156 C 196.5 175.355469 190.066406 163.160156 189.472656 161.96875 C 188.242188 159.519531 186.75 157.160156 185.726562 154.628906 C 185.09375 153.070312 183.675781 149.996094 181.5 151.488281 C 179.796875 152.660156 179.128906 155.230469 178.257812 156.992188 C 176.671875 160.199219 175.269531 163.492188 173.769531 166.734375 C 172.238281 170.042969 170.503906 173.226562 168.484375 176.242188 C 165.671875 173.921875 162.523438 172.039062 159.167969 170.546875 C 154.203125 168.335938 148.898438 166.945312 143.640625 165.628906 C 142.671875 165.386719 141.625 165.359375 140.648438 165.597656 C 140.261719 165.695312 138.59375 166.328125 139.269531 167.054688 C 144.339844 172.511719 148.300781 178.988281 150.808594 186.007812 C 152.070312 189.53125 152.960938 193.1875 153.457031 196.902344 C 153.8125 199.542969 153.785156 202.1875 154 204.824219 C 154.113281 206.210938 153.878906 208.625 155.785156 208.679688 C 156.832031 208.710938 157.941406 208.332031 158.878906 207.898438 C 160.371094 207.199219 161.894531 206.578125 163.4375 206.007812 C 163.828125 205.863281 164.21875 205.726562 164.609375 205.589844 C 164.808594 205.523438 165.007812 205.457031 165.207031 205.386719 C 165.253906 205.375 165.289062 205.363281 165.320312 205.351562 C 165.34375 205.34375 165.375 205.332031 165.410156 205.320312 C 166.304688 205.03125 167.203125 204.765625 168.105469 204.511719 C 169.90625 204.007812 171.726562 203.574219 173.558594 203.199219 C 174.007812 203.105469 174.457031 203.019531 174.90625 202.933594 C 175.050781 202.90625 175.195312 202.882812 175.34375 202.855469 C 175.425781 202.839844 175.726562 202.789062 175.785156 202.777344 C 176.777344 202.613281 177.773438 202.46875 178.769531 202.339844 C 180.597656 202.101562 182.433594 201.9375 184.277344 201.835938 C 184.382812 201.832031 184.644531 201.816406 184.714844 201.816406 C 184.949219 201.804688 185.179688 201.800781 185.414062 201.792969 C 185.875 201.777344 186.339844 201.773438 186.800781 201.765625 C 187.800781 201.757812 188.796875 201.777344 189.796875 201.8125 C 190.25 201.828125 190.707031 201.855469 191.164062 201.878906 C 191.183594 201.882812 191.203125 201.882812 191.21875 201.882812 C 191.238281 201.886719 191.257812 201.886719 191.28125 201.886719 C 191.507812 201.90625 191.730469 201.925781 191.957031 201.945312 C 192.921875 202.027344 193.886719 202.144531 194.847656 202.28125 C 195.28125 202.34375 195.71875 202.414062 196.152344 202.488281 C 196.371094 202.523438 196.585938 202.5625 196.800781 202.605469 C 196.808594 202.605469 196.8125 202.605469 196.816406 202.605469 C 196.851562 202.613281 196.894531 202.621094 196.949219 202.632812 C 197.859375 202.820312 198.761719 203.042969 199.660156 203.289062 C 200.066406 203.402344 200.472656 203.523438 200.875 203.648438 C 201.074219 203.710938 201.273438 203.777344 201.472656 203.84375 C 201.519531 203.859375 201.558594 203.871094 201.589844 203.882812 C 201.609375 203.890625 201.632812 203.898438 201.65625 203.90625 C 202.429688 204.183594 203.1875 204.496094 203.933594 204.828125 C 204.667969 205.15625 205.382812 205.519531 206.085938 205.910156 C 206.136719 205.9375 206.175781 205.960938 206.203125 205.976562 C 206.230469 205.992188 206.265625 206.011719 206.308594 206.039062 C 206.480469 206.136719 206.644531 206.242188 206.8125 206.347656 C 207.144531 206.554688 207.46875 206.773438 207.789062 206.996094 C 208.269531 207.328125 208.851562 207.527344 209.457031 207.621094 C 196.855469 209.824219 185.152344 216.0625 173.878906 221.816406 C 172.832031 222.351562 171.785156 222.886719 170.738281 223.417969 C 165.183594 221.351562 159.621094 219.285156 154.035156 217.308594 C 149.246094 215.613281 144.421875 214.003906 139.53125 212.628906 C 135.410156 211.464844 131.191406 210.332031 126.929688 209.871094 C 123.25 209.472656 119.523438 209.464844 115.84375 209.832031 C 112.207031 210.195312 108.484375 210.976562 105.175781 212.566406 C 102.007812 214.085938 99.535156 216.382812 98.082031 219.609375 C 96.582031 222.929688 96.457031 226.558594 97.589844 230 C 100.851562 239.929688 115.761719 241.957031 124.566406 241.859375 C 137.3125 241.710938 149.847656 237.085938 161.328125 231.910156 C 164.726562 230.378906 168.078125 228.734375 171.410156 227.050781 C 174.070312 228.039062 176.734375 229.007812 179.414062 229.945312 C 178.441406 229.605469 173.316406 232.597656 172.40625 233.15625 C 169.929688 234.667969 167.886719 236.695312 166.070312 239.003906 C 160.089844 246.601562 168.710938 252.433594 175.953125 251.09375 C 178.882812 250.550781 183.933594 248.582031 183.796875 244.78125 C 183.679688 241.359375 178.144531 240.664062 177.050781 243.703125 C 176.074219 246.40625 172.148438 248.402344 172.078125 244.203125 C 172.015625 240.328125 175.191406 237.578125 178.023438 235.421875 C 179.957031 233.953125 182.011719 232.6875 184.144531 231.5625 C 192.144531 234.222656 200.253906 236.578125 208.449219 238.554688 C 219.375 241.191406 230.703125 243.398438 241.988281 243.265625 C 246.828125 243.210938 251.753906 242.714844 256.316406 241.007812 C 259.65625 239.761719 262.835938 237.570312 264.4375 234.292969 C 266.152344 230.777344 266.132812 226.347656 264.722656 222.738281 " fill-opacity="1" fill-rule="nonzero"/></g></svg>